<svg xmlns="http://www.w3.org/2000/svg" viewBox="0 0 64 64" fill="none"><defs><linearGradient id="g" x1="8" y1="8" x2="56" y2="56" gradientUnits="userSpaceOnUse"><stop stop-color="#4F67FF"/><stop offset="0.55" stop-color="#7B5CFF"/><stop offset="1" stop-color="#00B8A9"/></linearGradient></defs><rect x="4" y="4" width="56" height="56" rx="18" fill="url(#g)"/><path d="M20 18h18c4.418 0 8 3.582 8 8v2H28v8h18v2c0 4.418-3.582 8-8 8H20c-4.418 0-8-3.582-8-8V26c0-4.418 3.582-8 8-8Z" fill="white" fill-opacity=".18"/><path d="M20 18h14l10 10v18c0 3.314-2.686 6-6 6H20c-3.314 0-6-2.686-6-6V24c0-3.314 2.686-6 6-6Z" stroke="white" stroke-width="3"/><path d="M34 18v10h10" stroke="white" stroke-width="3" stroke-linejoin="round"/><path d="M24 39.5 29 34l4 4 8-8" stroke="white" stroke-width="3.2" stroke-linecap="round" stroke-linejoin="round"/></svg>