<svg xmlns="http://www.w3.org/2000/svg" viewBox="0 0 960 300" fill="none"><defs><linearGradient id="g" x1="105" y1="36" x2="827" y2="248" gradientUnits="userSpaceOnUse"><stop stop-color="#4F67FF"/><stop offset=".55" stop-color="#7B5CFF"/><stop offset="1" stop-color="#00B8A9"/></linearGradient></defs><rect width="960" height="300" rx="28" fill="#F8FBFF"/><g><rect x="40" y="50" width="256" height="200" rx="26" fill="#fff" stroke="#DCE6FB"/><rect x="68" y="78" width="74" height="74" rx="22" fill="#EEF3FF"/><path d="M90 135h32V95H90z" fill="url(#g)" fill-opacity=".25"/><path d="m85 138 16-22 16 8 20-24 20 36H85Z" fill="url(#g)" fill-opacity=".7"/><rect x="68" y="176" width="160" height="18" rx="9" fill="#DCE6FB"/><rect x="68" y="204" width="128" height="14" rx="7" fill="#EEF3FF"/></g><g><rect x="352" y="50" width="256" height="200" rx="26" fill="#fff" stroke="#DCE6FB"/><rect x="380" y="78" width="74" height="74" rx="22" fill="#EEF3FF"/><path d="M400 96h34a14 14 0 0 1 14 14v10h-48z" fill="url(#g)" fill-opacity=".25"/><path d="M398 132h48v18h-48z" fill="url(#g)" fill-opacity=".7"/><rect x="380" y="176" width="160" height="18" rx="9" fill="#DCE6FB"/><rect x="380" y="204" width="138" height="14" rx="7" fill="#EEF3FF"/></g><g><rect x="664" y="50" width="256" height="200" rx="26" fill="#fff" stroke="#DCE6FB"/><rect x="692" y="78" width="74" height="74" rx="22" fill="#EEF3FF"/><path d="M708 96h42l14 18-14 18h-42z" fill="url(#g)" fill-opacity=".3"/><path d="m730 105 16 9-16 9v-18Z" fill="url(#g)"/><rect x="692" y="176" width="160" height="18" rx="9" fill="#DCE6FB"/><rect x="692" y="204" width="142" height="14" rx="7" fill="#EEF3FF"/></g></svg>